<svg width="87" height="34" viewBox="0 0 87 34" fill="none" xmlns="http://www.w3.org/2000/svg">
<path fill-rule="evenodd" clip-rule="evenodd" d="M15.5 32C6.94 32 0 25.06 0 16.5C0 7.94 6.94 1 15.5 1C24.06 1 31 7.94 31 16.5C31 25.06 24.06 32 15.5 32ZM15.5 28.5C22.404 28.5 28 23.127 28 16.5C28 9.873 22.404 4.5 15.5 4.5C8.596 4.5 3 9.873 3 16.5C3 23.127 8.596 28.5 15.5 28.5Z" fill="url(#paint0_linear_118_2)"/>
<path d="M56.7185 1.84348L51.4176 4.06261C51.784 4.37333 52.1527 4.6887 52.5237 5.0087C52.8947 5.32406 53.2379 5.64638 53.5533 5.97565C53.8687 6.30493 54.1423 6.64348 54.3742 6.9913C54.606 7.33913 54.7707 7.69623 54.8681 8.06261C54.9655 8.42435 54.9794 8.79768 54.9098 9.18261C54.8402 9.56754 54.6617 9.96638 54.3742 10.3791C54.3463 10.4162 54.3023 10.4696 54.242 10.5391C54.1863 10.6041 54.1075 10.6783 54.0055 10.7617C53.9081 10.8452 53.7852 10.9357 53.6368 11.033C53.493 11.1258 53.3214 11.2209 53.122 11.3183C52.7695 11.4806 52.4101 11.6081 52.0437 11.7009C51.6773 11.7936 51.3063 11.8632 50.9307 11.9096C50.555 11.9513 50.1747 11.9768 49.7898 11.9861C49.4095 11.9954 49.0292 11.993 48.6489 11.9791C47.8142 11.9699 47.0652 11.9212 46.402 11.833C45.7388 11.7403 45.1544 11.6012 44.6489 11.4157C43.6936 11.04 43.0443 10.5067 42.7011 9.81565C42.5063 9.44464 42.4089 9.04116 42.4089 8.60522C42.4089 8.16464 42.4994 7.70087 42.6802 7.21391C42.8147 6.88 42.9469 6.61101 43.0768 6.40696C43.2066 6.19826 43.2831 6.07536 43.3063 6.03826L44.4055 6.85217L44.2455 7.10957C44.2037 7.18841 44.155 7.27884 44.0994 7.38087C44.0484 7.4829 43.9997 7.59884 43.9533 7.7287C43.7446 8.33159 43.7353 8.81855 43.9255 9.18957C44.1573 9.6487 44.6791 9.99884 45.4907 10.24C46.3023 10.4765 47.362 10.5971 48.6698 10.6017C49.1568 10.6249 49.595 10.6249 49.9846 10.6017C50.3788 10.5786 50.7266 10.5438 51.0281 10.4974C51.3342 10.4464 51.5985 10.3884 51.8211 10.3235C52.0484 10.2586 52.2385 10.1936 52.3915 10.1287C52.6791 10.0081 52.8831 9.89913 53.0037 9.80174C53.1289 9.70435 53.2031 9.64406 53.2263 9.62087L53.2472 9.6L53.275 9.5513C53.4373 9.36116 53.5301 9.16174 53.5533 8.95304C53.5811 8.73971 53.5579 8.52406 53.4837 8.30609C53.4142 8.08348 53.3005 7.85855 53.1429 7.6313C52.9898 7.40406 52.8113 7.17913 52.6072 6.95652C52.4031 6.73391 52.1829 6.51594 51.9463 6.30261C51.7098 6.08928 51.4756 5.88522 51.2437 5.69043C51.0118 5.49101 50.7892 5.30551 50.5759 5.13391C50.3672 4.96232 50.184 4.80696 50.0263 4.66783L50.2002 3.07478L56.1829 0.577391L56.7185 1.84348ZM62.136 12C61.6259 12 61.1876 11.9397 60.8212 11.8191C60.4595 11.6986 60.1534 11.513 59.903 11.2626C59.7499 11.1096 59.6317 10.9449 59.5482 10.7687C59.4694 10.5925 59.4091 10.4186 59.3673 10.247C59.3302 10.0754 59.3094 9.91304 59.3047 9.76C59.3001 9.60232 59.2978 9.46783 59.2978 9.35652V9.22435C59.2978 9.21971 59.3001 9.13623 59.3047 8.97391C59.3094 8.80696 59.3117 8.58435 59.3117 8.30609C59.3163 8.02319 59.3186 7.69855 59.3186 7.33217C59.3186 6.9658 59.3163 6.57855 59.3117 6.17043C59.3117 5.77159 59.307 5.35652 59.2978 4.92522C59.2885 4.49391 59.2746 4.07652 59.256 3.67304C59.2375 3.26957 59.212 2.89855 59.1795 2.56C59.147 2.21681 59.1099 1.93623 59.0682 1.71826L60.4317 1.46783C60.4734 1.70435 60.5105 1.9942 60.543 2.33739C60.5755 2.68058 60.601 3.05391 60.6195 3.45739C60.6427 3.86087 60.6589 4.2829 60.6682 4.72348C60.6775 5.15942 60.6821 5.58609 60.6821 6.00348C60.6868 6.41159 60.6891 6.80348 60.6891 7.17913C60.6891 7.55478 60.6891 7.8887 60.6891 8.18087C60.6891 8.47304 60.6868 8.7142 60.6821 8.90435C60.6821 9.09449 60.6821 9.20812 60.6821 9.24522V9.37043C60.6775 9.57449 60.6844 9.75536 60.703 9.91304C60.7215 10.0661 60.7841 10.1936 60.8908 10.2957C61.0995 10.5136 61.4937 10.6249 62.0734 10.6296H62.136C62.2288 10.6296 62.3169 10.6481 62.4004 10.6852C62.4839 10.7223 62.5557 10.7733 62.616 10.8383C62.681 10.8986 62.732 10.9704 62.7691 11.0539C62.8062 11.1374 62.8247 11.2255 62.8247 11.3183C62.8247 11.513 62.7575 11.6754 62.623 11.8052C62.4885 11.9351 62.3262 12 62.136 12ZM61.485 11.3252C61.485 11.2371 61.5012 11.1536 61.5337 11.0748C61.5662 10.9913 61.6125 10.9194 61.6728 10.8591C61.7285 10.7942 61.7957 10.7432 61.8746 10.7061C61.9534 10.669 62.0369 10.6458 62.125 10.6365C62.3986 10.6365 62.6444 10.5832 62.8624 10.4765C63.085 10.3699 63.2798 10.2284 63.4467 10.0522C63.6183 9.8713 63.7691 9.66493 63.8989 9.43304C64.0288 9.20116 64.1401 8.96 64.2328 8.70957C64.3256 8.45449 64.4021 8.19942 64.4624 7.94435C64.5273 7.68464 64.583 7.44116 64.6293 7.21391L66.0067 7.50609C65.9696 7.61739 65.9233 7.76116 65.8676 7.93739C65.8166 8.11362 65.7656 8.30377 65.7146 8.50783C65.6636 8.70725 65.6195 8.91362 65.5824 9.12696C65.5453 9.33565 65.5267 9.53043 65.5267 9.7113C65.5267 9.83652 65.5383 9.95942 65.5615 10.08C65.5847 10.1959 65.6241 10.3003 65.6798 10.393C65.7354 10.4858 65.812 10.56 65.9093 10.6157C66.0067 10.6713 66.1296 10.6991 66.278 10.6991C66.5146 10.6991 66.7256 10.6342 66.9111 10.5043C67.1012 10.3745 67.2682 10.2052 67.412 9.99652C67.5604 9.78783 67.6879 9.5513 67.7946 9.28696C67.9012 9.02261 67.9917 8.75362 68.0659 8.48C68.1447 8.20638 68.2096 7.94203 68.2607 7.68696C68.3117 7.42725 68.3511 7.20232 68.3789 7.01217L69.7146 7.25565C69.7146 7.25565 69.7007 7.33217 69.6728 7.48522C69.6496 7.63362 69.6195 7.81681 69.5824 8.03478C69.5499 8.24812 69.5198 8.47768 69.492 8.72348C69.4641 8.96464 69.4502 9.18029 69.4502 9.37043C69.4502 9.54203 69.4618 9.70667 69.485 9.86435C69.5128 10.0174 69.5546 10.1542 69.6102 10.2748C69.6705 10.3907 69.747 10.4881 69.8398 10.567C69.9372 10.6412 70.0554 10.6852 70.1946 10.6991C70.4079 10.727 70.5841 10.7246 70.7233 10.6922C70.867 10.6597 70.9807 10.618 71.0641 10.567C71.1476 10.5113 71.2079 10.4533 71.245 10.393C71.2867 10.3328 71.3146 10.2887 71.3285 10.2609H71.3215C71.3864 10.1588 71.4305 10.0429 71.4537 9.91304C71.4815 9.78319 71.4954 9.64406 71.4954 9.49565C71.4954 9.2313 71.4583 8.94609 71.3841 8.64C71.3146 8.33391 71.2288 8.03478 71.1267 7.74261C71.0293 7.4458 70.925 7.17217 70.8137 6.92174C70.707 6.66667 70.6166 6.46493 70.5424 6.31652L71.7598 5.67652C71.783 5.7229 71.827 5.81333 71.892 5.94783C71.9569 6.07768 72.0311 6.24 72.1146 6.43478C72.198 6.62493 72.2838 6.84058 72.372 7.08174C72.4647 7.3229 72.5482 7.57797 72.6224 7.84696C72.6966 8.1113 72.7569 8.38261 72.8033 8.66087C72.8543 8.93913 72.8798 9.21043 72.8798 9.47478C72.8798 9.87362 72.8241 10.2354 72.7128 10.56C72.6015 10.88 72.4346 11.1536 72.212 11.3809C71.9893 11.6081 71.7088 11.7843 71.3702 11.9096C71.0363 12.0301 70.6444 12.0881 70.1946 12.0835C70.0137 12.0835 69.8351 12.0557 69.6589 12C69.4827 11.9443 69.3134 11.8701 69.1511 11.7774C68.9888 11.68 68.838 11.5687 68.6989 11.4435C68.5598 11.3136 68.4415 11.1745 68.3441 11.0261C68.0659 11.3507 67.7505 11.6081 67.398 11.7983C67.0456 11.9884 66.6722 12.0835 66.278 12.0835C66.1064 12.0835 65.9279 12.0603 65.7424 12.0139C65.5615 11.9722 65.3876 11.9072 65.2207 11.8191C65.0537 11.731 64.9007 11.622 64.7615 11.4922C64.627 11.3623 64.5227 11.2116 64.4485 11.04C64.1702 11.3322 63.8549 11.5641 63.5024 11.7357C63.1499 11.9072 62.7279 11.9977 62.2363 12.007H62.125C62.0369 12.0023 61.9534 11.9814 61.8746 11.9443C61.7957 11.9072 61.7285 11.8586 61.6728 11.7983C61.6125 11.738 61.5662 11.6684 61.5337 11.5896C61.5012 11.5061 61.485 11.418 61.485 11.3252ZM68.9076 3.7287L70.0346 2.60174L71.1754 3.74261L70.0485 4.86957L68.9076 3.7287ZM65.8537 3.72174L66.9807 2.58783L68.1215 3.7287L66.9946 4.86261L65.8537 3.72174ZM67.5302 1.62783L68.5598 0.598261L69.5963 1.63478L68.5667 2.66435L67.5302 1.62783ZM74.277 15.5409C74.9912 15.3971 75.6312 15.1977 76.197 14.9426C76.7628 14.6875 77.2474 14.4 77.6509 14.08C78.0544 13.76 78.3721 13.4191 78.6039 13.0574C78.8405 12.7003 78.9842 12.3478 79.0352 12C78.8405 12.0046 78.6086 12.0046 78.3396 12C78.0752 12 77.8155 11.9884 77.5605 11.9652C76.5541 11.9003 75.8097 11.571 75.3274 10.9774C75.1141 10.7084 74.9773 10.3977 74.917 10.0452C74.8613 9.69275 74.859 9.33333 74.91 8.96696C74.9657 8.59594 75.0654 8.23884 75.2092 7.89565C75.3529 7.54783 75.5222 7.2487 75.717 6.99826C75.9489 6.70609 76.2039 6.4858 76.4822 6.33739C76.7605 6.18435 77.048 6.10783 77.3448 6.10783C78.0034 6.10783 78.6086 6.40464 79.1605 6.99826C79.3552 7.21623 79.5315 7.46203 79.6892 7.73565C79.8468 8.00928 79.9813 8.30377 80.0926 8.61913C80.2039 8.92985 80.2921 9.25681 80.357 9.6C80.4219 9.93855 80.459 10.2841 80.4683 10.6365H80.99C81.0874 10.6365 81.1779 10.6551 81.2613 10.6922C81.3448 10.7246 81.4167 10.7733 81.477 10.8383C81.5419 10.8986 81.5929 10.9704 81.63 11.0539C81.6671 11.1374 81.6857 11.2278 81.6857 11.3252C81.6857 11.418 81.6671 11.5061 81.63 11.5896C81.5929 11.6684 81.5419 11.7403 81.477 11.8052C81.4167 11.8655 81.3448 11.9142 81.2613 11.9513C81.1779 11.9838 81.0874 12 80.99 12H80.3639C80.2248 12.6864 79.9721 13.3055 79.6057 13.8574C79.2439 14.4139 78.8034 14.8986 78.2839 15.3113C77.7692 15.7241 77.1941 16.0626 76.5587 16.327C75.9234 16.5913 75.2694 16.7768 74.597 16.8835L74.277 15.5409ZM77.3448 7.47826C77.2103 7.47826 77.0828 7.53159 76.9622 7.63826C76.8416 7.74029 76.7326 7.87246 76.6352 8.03478C76.5425 8.1971 76.4637 8.38029 76.3987 8.58435C76.3338 8.78377 76.2874 8.98319 76.2596 9.18261C76.2364 9.37739 76.2364 9.56058 76.2596 9.73217C76.2828 9.89913 76.3338 10.0313 76.4126 10.1287C76.4822 10.2214 76.5703 10.298 76.677 10.3583C76.7837 10.4139 76.895 10.4603 77.0109 10.4974C77.1268 10.5299 77.2405 10.5554 77.3518 10.5739C77.4677 10.5878 77.5674 10.5971 77.6509 10.6017C77.9431 10.6203 78.2097 10.6272 78.4509 10.6226C78.6967 10.618 78.91 10.6087 79.0909 10.5948C79.077 10.3026 79.0422 10.0243 78.9865 9.76C78.9309 9.49101 78.859 9.2429 78.7709 9.01565C78.6874 8.78841 78.59 8.58435 78.4787 8.40348C78.3674 8.21797 78.2538 8.05797 78.1379 7.92348C78.0915 7.8771 78.0381 7.82841 77.9779 7.77739C77.9222 7.72174 77.8596 7.67304 77.79 7.6313C77.7251 7.58493 77.6532 7.54783 77.5744 7.52C77.5002 7.49217 77.4237 7.47826 77.3448 7.47826ZM80.3026 11.3183C80.3026 11.1235 80.3699 10.9612 80.5044 10.8313C80.6342 10.7014 80.7942 10.6365 80.9844 10.6365H81.7565C81.9189 10.6412 82.0951 10.6435 82.2852 10.6435C82.4754 10.6388 82.6679 10.6272 82.8626 10.6087C83.0574 10.5901 83.2476 10.5646 83.4331 10.5322C83.6232 10.4951 83.7971 10.4464 83.9548 10.3861C84.1125 10.3212 84.2516 10.2423 84.3722 10.1496C84.4928 10.0568 84.5832 9.94551 84.6435 9.81565C84.7363 9.61623 84.7618 9.33333 84.72 8.96696C84.6829 8.59594 84.5902 8.16464 84.4418 7.67304C84.3908 7.52464 84.3305 7.36464 84.2609 7.19304C84.196 7.01681 84.131 6.85449 84.0661 6.70609C83.9919 6.52985 83.9154 6.35594 83.8365 6.18435L85.0748 5.57217C85.0748 5.57681 85.0957 5.62551 85.1374 5.71826C85.1838 5.80638 85.2394 5.92696 85.3044 6.08C85.3693 6.23304 85.4412 6.41159 85.52 6.61565C85.5989 6.81507 85.6731 7.02841 85.7426 7.25565C86.1739 8.58667 86.2273 9.62551 85.9026 10.3722C85.5734 11.1188 84.989 11.6104 84.1496 11.847C84.0244 11.8841 83.8644 11.9142 83.6696 11.9374C83.4748 11.9559 83.2754 11.9699 83.0713 11.9791C82.8673 11.9884 82.6725 11.9954 82.487 12C82.3015 12 82.1577 12 82.0557 12H81.047H80.9844C80.7942 12 80.6342 11.9351 80.5044 11.8052C80.3699 11.6754 80.3026 11.513 80.3026 11.3183ZM85.1026 13.2939L86.2296 14.4209L85.0887 15.5617L83.9618 14.4348L85.1026 13.2939ZM82.0626 13.3009L83.1896 14.4348L82.0487 15.5757L80.9218 14.4417L82.0626 13.3009ZM83.607 15.4991L84.6365 16.5287L83.6 17.5652L82.5705 16.5357L83.607 15.4991ZM67.4973 23.1165C67.386 23.1629 67.2539 23.2209 67.1008 23.2904C66.9478 23.3554 66.7878 23.4319 66.6208 23.52C66.4585 23.6035 66.2962 23.6986 66.1339 23.8052C65.9762 23.9072 65.8324 24.0186 65.7026 24.1391C65.5773 24.2551 65.4753 24.3826 65.3965 24.5217C65.3176 24.6562 65.2782 24.7977 65.2782 24.9461C65.2782 25.0991 65.3246 25.2243 65.4173 25.3217C65.5147 25.4145 65.6376 25.4887 65.786 25.5443C65.9391 25.5954 66.1107 25.6301 66.3008 25.6487C66.491 25.6672 66.6811 25.6765 66.8713 25.6765C67.066 25.6719 67.2492 25.6603 67.4208 25.6417C67.597 25.6232 67.7455 25.6023 67.866 25.5791C67.8104 25.3101 67.7524 24.9809 67.6921 24.5913C67.6365 24.2017 67.5715 23.7101 67.4973 23.1165ZM66.8156 27.0261C65.6191 27.0261 64.7866 26.7362 64.3182 26.1565C64.1884 25.9988 64.0956 25.8319 64.0399 25.6557C63.9889 25.4748 63.9588 25.2986 63.9495 25.127C63.9449 24.9554 63.9565 24.7954 63.9843 24.647C64.0121 24.4986 64.0469 24.3757 64.0886 24.2783C64.2139 24.0186 64.3623 23.7797 64.5339 23.5617C64.7101 23.3438 64.8956 23.149 65.0904 22.9774C65.2898 22.8012 65.4939 22.6458 65.7026 22.5113C65.9159 22.3722 66.1199 22.2516 66.3147 22.1496C66.5141 22.0475 66.702 21.9594 66.8782 21.8852C67.0544 21.811 67.2075 21.7507 67.3373 21.7043C67.3002 21.3519 67.2724 21.0945 67.2539 20.9322C67.2399 20.7652 67.233 20.6794 67.233 20.6748L68.5965 20.3896V20.3826C68.6011 20.4243 68.6104 20.5101 68.6243 20.64C68.6382 20.7699 68.6544 20.9252 68.673 21.1061C68.6915 21.2823 68.7101 21.4725 68.7286 21.6765C68.7518 21.8759 68.7727 22.0638 68.7913 22.24C68.8098 22.4162 68.826 22.5693 68.8399 22.6991C68.8539 22.829 68.8631 22.9101 68.8678 22.9426C68.9373 23.5409 69.0023 24.0301 69.0626 24.4104C69.1228 24.7907 69.1762 25.0945 69.2226 25.3217C69.2689 25.5443 69.306 25.7043 69.3339 25.8017C69.3663 25.8991 69.3895 25.9617 69.4034 25.9896C69.4591 26.1148 69.5217 26.2191 69.5912 26.3026C69.6655 26.3861 69.7513 26.4533 69.8486 26.5043C69.946 26.5507 70.0573 26.5855 70.1826 26.6087C70.3078 26.6272 70.4515 26.6365 70.6139 26.6365C70.804 26.6365 70.9663 26.7014 71.1008 26.8313C71.2353 26.9612 71.3026 27.1235 71.3026 27.3183C71.3026 27.411 71.284 27.4991 71.2469 27.5826C71.2098 27.6661 71.1588 27.7403 71.0939 27.8052C71.0336 27.8655 70.9617 27.9142 70.8782 27.9513C70.7947 27.9838 70.7066 28 70.6139 28C70.4376 28 70.2266 27.9861 69.9808 27.9583C69.7397 27.9258 69.4985 27.8539 69.2573 27.7426C68.8863 27.5664 68.5802 27.2835 68.3391 26.8939C68.0515 26.9403 67.7826 26.9751 67.5321 26.9983C67.2817 27.0168 67.0428 27.0261 66.8156 27.0261ZM72.9259 30.4L71.7989 31.527L70.6581 30.393L71.785 29.2591L72.9259 30.4ZM75.7781 30.407L74.6511 31.5409L73.5102 30.4L74.6372 29.273L75.7781 30.407ZM69.5729 27.3183C69.5729 27.1235 69.6401 26.9612 69.7746 26.8313C69.9044 26.7014 70.0644 26.6365 70.2546 26.6365H71.0268C71.1891 26.6412 71.3653 26.6435 71.5555 26.6435C71.7456 26.6388 71.9381 26.6272 72.1329 26.6087C72.3276 26.5901 72.5178 26.5646 72.7033 26.5322C72.8934 26.4951 73.0673 26.4464 73.225 26.3861C73.3827 26.3212 73.5218 26.2423 73.6424 26.1496C73.763 26.0568 73.8534 25.9455 73.9137 25.8157C74.0065 25.6162 74.032 25.3333 73.9902 24.967C73.9531 24.5959 73.8604 24.1646 73.712 23.673C73.661 23.5246 73.6007 23.3646 73.5311 23.193C73.4662 23.0168 73.4013 22.8545 73.3363 22.7061C73.2621 22.5299 73.1856 22.3559 73.1068 22.1843L74.345 21.5722C74.345 21.5768 74.3659 21.6255 74.4076 21.7183C74.454 21.8064 74.5097 21.927 74.5746 22.08C74.6395 22.233 74.7114 22.4116 74.7902 22.6157C74.8691 22.8151 74.9433 23.0284 75.0129 23.2557C75.4442 24.5867 75.4975 25.6255 75.1729 26.3722C74.8436 27.1188 74.2592 27.6104 73.4198 27.847C73.2946 27.8841 73.1346 27.9142 72.9398 27.9374C72.745 27.9559 72.5456 27.9699 72.3415 27.9791C72.1375 27.9884 71.9427 27.9954 71.7572 28C71.5717 28 71.4279 28 71.3259 28H70.3172H70.2546C70.0644 28 69.9044 27.9351 69.7746 27.8052C69.6401 27.6754 69.5729 27.513 69.5729 27.3183ZM80.9954 28C80.4853 28 80.047 27.9397 79.6806 27.8191C79.3189 27.6986 79.0128 27.513 78.7624 27.2626C78.6093 27.1096 78.4911 26.9449 78.4076 26.7687C78.3287 26.5925 78.2685 26.4186 78.2267 26.247C78.1896 26.0754 78.1687 25.913 78.1641 25.76C78.1595 25.6023 78.1571 25.4678 78.1571 25.3565V25.2243C78.1571 25.2197 78.1595 25.1362 78.1641 24.9739C78.1687 24.807 78.1711 24.5843 78.1711 24.3061C78.1757 24.0232 78.178 23.6986 78.178 23.3322C78.178 22.9658 78.1757 22.5786 78.1711 22.1704C78.1711 21.7716 78.1664 21.3565 78.1571 20.9252C78.1479 20.4939 78.134 20.0765 78.1154 19.673C78.0969 19.2696 78.0713 18.8986 78.0389 18.56C78.0064 18.2168 77.9693 17.9362 77.9276 17.7183L79.2911 17.4678C79.3328 17.7043 79.3699 17.9942 79.4024 18.3374C79.4348 18.6806 79.4603 19.0539 79.4789 19.4574C79.5021 19.8609 79.5183 20.2829 79.5276 20.7235C79.5369 21.1594 79.5415 21.5861 79.5415 22.0035C79.5461 22.4116 79.5485 22.8035 79.5485 23.1791C79.5485 23.5548 79.5485 23.8887 79.5485 24.1809C79.5485 24.473 79.5461 24.7142 79.5415 24.9043C79.5415 25.0945 79.5415 25.2081 79.5415 25.2452V25.3704C79.5369 25.5745 79.5438 25.7554 79.5624 25.913C79.5809 26.0661 79.6435 26.1936 79.7502 26.2957C79.9589 26.5136 80.3531 26.6249 80.9328 26.6296H80.9954C81.0882 26.6296 81.1763 26.6481 81.2598 26.6852C81.3432 26.7223 81.4151 26.7733 81.4754 26.8383C81.5403 26.8986 81.5913 26.9704 81.6285 27.0539C81.6656 27.1374 81.6841 27.2255 81.6841 27.3183C81.6841 27.513 81.6169 27.6754 81.4824 27.8052C81.3479 27.9351 81.1856 28 80.9954 28ZM80.3026 27.3183C80.3026 27.1235 80.3699 26.9612 80.5044 26.8313C80.6342 26.7014 80.7942 26.6365 80.9844 26.6365H81.7565C81.9189 26.6412 82.0951 26.6435 82.2852 26.6435C82.4754 26.6388 82.6679 26.6272 82.8626 26.6087C83.0574 26.5901 83.2476 26.5646 83.4331 26.5322C83.6232 26.4951 83.7971 26.4464 83.9548 26.3861C84.1125 26.3212 84.2516 26.2423 84.3722 26.1496C84.4928 26.0568 84.5832 25.9455 84.6435 25.8157C84.7363 25.6162 84.7618 25.3333 84.72 24.967C84.6829 24.5959 84.5902 24.1646 84.4418 23.673C84.3908 23.5246 84.3305 23.3646 84.2609 23.193C84.196 23.0168 84.131 22.8545 84.0661 22.7061C83.9919 22.5299 83.9154 22.3559 83.8365 22.1843L85.0748 21.5722C85.0748 21.5768 85.0957 21.6255 85.1374 21.7183C85.1838 21.8064 85.2394 21.927 85.3044 22.08C85.3693 22.233 85.4412 22.4116 85.52 22.6157C85.5989 22.8151 85.6731 23.0284 85.7426 23.2557C86.1739 24.5867 86.2273 25.6255 85.9026 26.3722C85.5734 27.1188 84.989 27.6104 84.1496 27.847C84.0244 27.8841 83.8644 27.9142 83.6696 27.9374C83.4748 27.9559 83.2754 27.9699 83.0713 27.9791C82.8673 27.9884 82.6725 27.9954 82.487 28C82.3015 28 82.1577 28 82.0557 28H81.047H80.9844C80.7942 28 80.6342 27.9351 80.5044 27.8052C80.3699 27.6754 80.3026 27.513 80.3026 27.3183ZM85.1026 29.2939L86.2296 30.4209L85.0887 31.5617L83.9618 30.4348L85.1026 29.2939ZM82.0626 29.3009L83.1896 30.4348L82.0487 31.5757L80.9218 30.4417L82.0626 29.3009ZM83.607 31.4991L84.6365 32.5287L83.6 33.5652L82.5705 32.5357L83.607 31.4991Z" fill="#413A3A"/>
<defs>
<linearGradient id="paint0_linear_118_2" x1="0" y1="1" x2="31" y2="32" gradientUnits="userSpaceOnUse">
<stop stop-color="#F8BFBF"/>
<stop offset="1" stop-color="#EE8B8B"/>
</linearGradient>
</defs>
</svg>
